<?xml version="1.0" encoding="utf-8"?>
<!-- Generator: Adobe Illustrator 27.0.0, SVG Export Plug-In . SVG Version: 6.00 Build 0)  -->
<svg version="1.1" id="Capa_1" xmlns="http://www.w3.org/2000/svg" xmlns:xlink="http://www.w3.org/1999/xlink" x="0px" y="0px"
	 viewBox="0 0 1920 600" style="enable-background:new 0 0 1920 600;" xml:space="preserve">
<style type="text/css">
	.st0{fill:#02041E;}
	.st1{opacity:0.5;}
	.st2{clip-path:url(#SVGID_00000075852782026163689120000005019256375154050201_);}
	.st3{fill:none;stroke:url(#SVGID_00000156545631937212132040000011262301296040439989_);stroke-width:2;}
	.st4{fill:none;stroke:url(#SVGID_00000142867918133632447030000013938178118338769834_);stroke-width:2;stroke-opacity:0.5;}
	.st5{fill:none;stroke:url(#SVGID_00000084489481558690769800000012914594570820496260_);stroke-width:2;stroke-opacity:0.25;}
	.st6{fill:none;stroke:url(#SVGID_00000129204359497257363270000015236716340517043896_);stroke-width:2;stroke-opacity:0.1;}
	.st7{fill:#60D270;}
	.st8{opacity:0.2;fill:#60D270;}
	.st9{font-family:'ClanPro-Bold';}
	.st10{font-size:70.7213px;}
</style>
<rect class="st0" width="1920" height="600"/>
<g id="SLiWuS.tif" class="st1">
	
		<image style="overflow:visible;" width="720" height="541" id="Layer_0_00000159451730810614915120000006098289170257492397_" xlink:href="B90AE3BE8F403A2A.png"  transform="matrix(2.6667 0 0 2.6667 0 -18)">
	</image>
</g>
<g>
	<defs>
		
			<rect id="SVGID_1_" x="-136.71" y="-266.852" transform="matrix(0.9903 -0.1392 0.1392 0.9903 -27.5926 134.1355)" width="2164.054" height="1062.433"/>
	</defs>
	<clipPath id="SVGID_00000133517012550427228230000004002145401763848074_">
		<use xlink:href="#SVGID_1_"  style="overflow:visible;"/>
	</clipPath>
	<g style="clip-path:url(#SVGID_00000133517012550427228230000004002145401763848074_);">
		
			<linearGradient id="SVGID_00000002376763190060447250000004414076394305444750_" gradientUnits="userSpaceOnUse" x1="1175.0438" y1="435.8344" x2="-879.2151" y2="46.9892" gradientTransform="matrix(1 0 0 -1 804 596)">
			<stop  offset="0" style="stop-color:#64D889;stop-opacity:0"/>
			<stop  offset="0.2031" style="stop-color:#64D889"/>
			<stop  offset="0.3332" style="stop-color:#64D889;stop-opacity:0"/>
			<stop  offset="0.6672" style="stop-color:#64D889;stop-opacity:0"/>
			<stop  offset="0.7571" style="stop-color:#64D889"/>
			<stop  offset="0.9948" style="stop-color:#64D889;stop-opacity:0"/>
		</linearGradient>
		<path style="fill:none;stroke:url(#SVGID_00000002376763190060447250000004414076394305444750_);stroke-width:2;" d="
			M2004.583,79.975l-14.485-0.959c-4.79-0.318-9.594,0.502-14.006,2.393l-5.399,2.312c-5.356,2.29-11.248,3.002-16.996,2.046
			l-5.573-0.926c-2.018-0.335-4.006-0.875-5.922-1.611l-24.253-9.308c-6.648-2.556-14.137-1.778-20.117,2.091l-9.71,6.27
			c-3.164,2.051-7.344,1.61-10.015-1.062l0,0c-3.106-3.089-8.099-3.134-11.248-0.1l-8.984,8.665
			c-6.503,6.261-16.3,7.607-24.253,3.325l-3.208-1.733c-8.07-4.343-17.838-4.08-25.646,0.691l-13.498,8.241l-19.507,9.231
			c-5.269,2.492-9.71,6.44-12.801,11.378l-5.573,8.903c-2.758,4.408-6.604,8.036-11.161,10.54l-16.43,9.026
			c-3.716,2.044-6.981,4.843-9.55,8.219l-17.852,23.375c-0.972,1.29-2.061,2.499-3.237,3.617l-25.574,24.262
			c-1.118,1.062-2.322,2.026-3.614,2.881l-13.179,8.778c-3.803,2.53-8.897,1.829-11.873-1.634l0,0
			c-2.148-2.512-5.501-3.643-8.737-2.951l-7.054,1.512c-5.153,1.103-10.537,0.245-15.095-2.408l-1.625-0.946
			c-5.602-3.261-12.221-4.316-18.549-2.959l-0.392,0.083c-6.488,1.389-13.251,0.309-18.984-3.029l0,0
			c-5.486-3.195-11.945-4.325-18.186-3.19l-1.625,0.298c-3.092,0.56-6.241,0.641-9.347,0.242l-21.205-2.727
			c-11.655-1.499-23.135,3.843-29.507,13.729l-10.566,16.399c-3.121,4.851-8.825,7.379-14.514,6.434l0,0
			c-4.993-0.829-10.058,1.007-13.338,4.843l-0.581,0.672c-5.98,6.958-16.822,6.727-22.482-0.482l-0.639-0.792
			c-2.714-3.463-7.039-5.273-11.423-4.785l0,0c-3.803,0.422-7.591-0.89-10.334-3.575l-0.769-0.762
			c-3.309-3.241-7.91-4.782-12.497-4.182l-11.916,1.563c-8.897,1.165-16.822,6.19-21.67,13.733l-1.321,2.052
			c-0.435,0.666-0.813,1.366-1.132,2.092l0,0c-3.028,6.81-10.472,10.504-17.725,8.791l-94.458-22.288
			c-11.486-2.71-23.506,1.454-30.854,10.691l-29.448,37.021c-2.417,3.038-4.231,6.51-5.344,10.228l-2.955,9.867
			c-2.623,8.756-9.038,15.874-17.475,19.389l-43.39,18.079c-1.89,0.787-3.695,1.762-5.388,2.912l-35.491,24.075l-38.608,26.43
			c-4.412,3.02-7.952,7.148-10.264,11.968l-9.199,19.18c-1.498,3.122-3.517,5.965-5.97,8.409l-3.537,3.524
			c-4.546,4.53-10.405,7.508-16.743,8.513l-6.272,0.993c-2.909,0.462-5.663,1.614-8.032,3.363l0,0
			c-8.378,6.184-20.217,4.173-26.079-4.434l-2.772-4.068c-5.708-8.382-16.217-12.06-25.906-9.067l-34.591,10.681
			c-2.263,0.7-4.601,1.132-6.965,1.29l-41.631,2.775c-2.403,0.161-4.778,0.605-7.076,1.324l-36.85,11.533
			c-2.941,0.92-6.005,1.389-9.086,1.39l-21.307,0.012c-6.269,0.004-12.385-1.925-17.516-5.523l-28.951-20.299
			c-5.131-3.599-11.247-5.528-17.516-5.524l-10.704,0.006l-13.17,0.007c-4.713,0.003-9.36,1.097-13.578,3.2l-16.905,8.424
			c-3.411,1.7-7.108,2.745-10.903,3.081l-15.153,1.344c-9.852,0.874-19.135,6.746-28.266,10.55
			c-6.528,2.72-15.727,4.838-28.121,4.845c-15.339,0.009-32.375,8.481-46.281,17.934c-9.015,6.129-38.84,18.674-49.74,18.68l0,0
			c-1.311,0.002-5.332,0.232-6.581,0.626c-48.286,15.25-62.919-11.378-76.902-18.951c-4.576-2.479-9.868-0.377-14.204,2.505
			l-31.243,20.768c-8.724,5.798-19.818,6.711-29.372,2.415l-16.159-7.266l-34.883-14.173c-9.34-3.795-19.951-2.727-28.346,2.853
			l-56.277,37.407c-2.348,1.562-4.9,2.788-7.585,3.647l-70.753,22.635c-2.996,0.959-6.124,1.448-9.27,1.45l-34.168,0.019
			C38.785,553,27.425,545.155,22.94,533.294l-5.398-14.275c-4.485-11.86-15.109-16.327-26.546-10.851
			c-17.408,8.336-42.367,19.548-56.165,19.555c-21.962,0.013-89.804-18.865-120.98-28.305"/>
		
			<linearGradient id="SVGID_00000041977211323480646820000004919921183512113302_" gradientUnits="userSpaceOnUse" x1="1195.7466" y1="471.7304" x2="-891.1218" y2="68.8423" gradientTransform="matrix(1 0 0 -1 804 596)">
			<stop  offset="0" style="stop-color:#64D889;stop-opacity:0"/>
			<stop  offset="0.2031" style="stop-color:#64D889"/>
			<stop  offset="0.3332" style="stop-color:#64D889;stop-opacity:0"/>
			<stop  offset="0.6672" style="stop-color:#64D889;stop-opacity:0"/>
			<stop  offset="0.7571" style="stop-color:#64D889"/>
			<stop  offset="0.9948" style="stop-color:#64D889;stop-opacity:0"/>
		</linearGradient>
		
			<path style="fill:none;stroke:url(#SVGID_00000041977211323480646820000004919921183512113302_);stroke-width:2;stroke-opacity:0.5;" d="
			M2032.044,66.799l-20.828-12.044c-3.991-2.309-8.462-3.681-13.063-4.013l-7.823-0.563c-4.616-0.332-9.26,0.392-13.556,2.119
			l-6.807,2.733c-4.804,1.935-10.044,2.608-15.182,1.956l-5.936-0.75c-2.584-0.327-5.109-0.98-7.518-1.945l-24.166-9.677
			c-6.56-2.631-13.992-1.916-19.942,1.917l-9.666,6.231c-3.15,2.033-7.315,1.552-9.913-1.151l0,0
			c-3.034-3.148-8.055-3.213-11.161-0.148l-9.057,8.904c-6.589,6.494-16.735,7.735-24.703,3.023l-2.496-1.475
			c-7.707-4.553-17.301-4.481-24.935,0.189l-13.948,8.537l-20.61,10.17c-4.935,2.435-9.115,6.163-12.105,10.784l-6.183,9.563
			c-2.613,4.041-6.14,7.407-10.305,9.82l-17.17,9.96c-3.208,1.856-6.038,4.282-8.375,7.154l-20.494,25.247l-26.183,26.417
			c-1.263,1.286-2.671,2.44-4.166,3.447l-12.613,8.436c-3.846,2.572-8.984,1.962-12.119-1.44l0,0
			c-2.134-2.309-5.269-3.401-8.375-2.909l-7.736,1.225c-5.414,0.856-10.944-0.16-15.69-2.88l-0.842-0.478
			c-5.283-3.029-11.452-4.161-17.475-3.208l-2.656,0.421c-6.299,0.997-12.743-0.08-18.36-3.065l0,0
			c-5.631-2.987-12.076-4.064-18.375-3.067l-1.118,0.177c-2.845,0.45-5.733,0.496-8.592,0.135l-21.844-2.759
			c-11.698-1.476-23.179,3.917-29.522,13.852l-10.407,16.32c-3.237,5.084-9.144,7.817-15.124,6.999l-0.464-0.064
			c-4.891-0.669-9.783,1.183-13.005,4.92l0,0c-5.864,6.794-16.416,6.729-22.192-0.135l-1.655-1.967
			c-2.729-3.231-6.938-4.801-11.103-4.141l0,0c-3.658,0.579-7.388-0.554-10.102-3.076l-1.19-1.112
			c-3.469-3.224-8.23-4.674-12.903-3.932l-12.99,2.057c-7.693,1.219-14.63,5.341-19.376,11.518l-1.989,2.584
			c-0.723,0.933-1.328,1.949-1.805,3.025l0,0c-2.89,6.514-10.009,10.047-16.944,8.408l-95.083-22.474
			c-11.497-2.717-23.526,1.453-30.875,10.701l-29.472,37.089c-2.414,3.039-4.225,6.511-5.337,10.228l-2.965,9.913
			c-2.62,8.759-9.034,15.88-17.472,19.398l-43.426,18.106c-1.89,0.788-3.697,1.765-5.391,2.914l-35.513,24.111l-38.637,26.474
			c-4.412,3.022-7.951,7.153-10.261,11.976l-9.211,19.228c-1.496,3.122-3.513,5.967-5.965,8.412l-3.544,3.534
			c-4.547,4.536-10.411,7.518-16.755,8.524l-6.273,0.993c-2.91,0.462-5.668,1.617-8.039,3.369l0,0
			c-8.38,6.192-20.228,4.177-26.091-4.437l-2.782-4.089c-5.714-8.395-16.235-12.079-25.938-9.082l-34.602,10.691
			c-2.266,0.7-4.605,1.134-6.972,1.292l-41.66,2.774c-2.405,0.16-4.782,0.605-7.083,1.325l-36.872,11.544
			c-2.943,0.922-6.01,1.392-9.096,1.393l-21.323,0.007c-6.27,0.003-12.391-1.929-17.523-5.533l-28.985-20.346
			c-5.132-3.602-11.251-5.534-17.523-5.533l-10.714,0.004l-13.177,0.006c-4.717,0.001-9.37,1.099-13.591,3.203l-16.913,8.436
			c-3.412,1.703-7.113,2.749-10.912,3.086l-15.163,1.344c-9.859,0.874-19.147,6.752-28.282,10.562
			c-6.534,2.724-15.739,4.845-28.146,4.849c-15.352,0.007-32.403,8.495-46.319,17.964c-9.023,6.141-38.844,18.694-49.757,18.699l0,0
			c-1.314,0-5.346,0.231-6.597,0.627c-48.315,15.265-62.964-11.409-76.957-18.997c-4.581-2.485-9.877-0.38-14.215,2.507
			l-31.26,20.797c-8.73,5.809-19.834,6.72-29.395,2.415l-16.172-7.28l-34.911-14.203c-9.346-3.803-19.967-2.733-28.368,2.856
			l-56.312,37.462c-2.348,1.562-4.903,2.791-7.589,3.652l-70.8,22.662c-3,0.959-6.129,1.448-9.28,1.45l-34.206,0.013
			c-12.681,0.006-24.04-7.842-28.523-19.704l-5.429-14.365c-4.483-11.862-15.104-16.328-26.54-10.848
			c-17.42,8.347-42.406,19.581-56.217,19.587"/>
		
			<linearGradient id="SVGID_00000151515390320578745950000008198007488140221875_" gradientUnits="userSpaceOnUse" x1="1201.9117" y1="500.4291" x2="-875.212" y2="106.6445" gradientTransform="matrix(1 0 0 -1 804 596)">
			<stop  offset="0" style="stop-color:#64D889;stop-opacity:0"/>
			<stop  offset="0.2031" style="stop-color:#64D889"/>
			<stop  offset="0.3332" style="stop-color:#64D889;stop-opacity:0"/>
			<stop  offset="0.6672" style="stop-color:#64D889;stop-opacity:0"/>
			<stop  offset="0.7571" style="stop-color:#64D889"/>
			<stop  offset="0.9948" style="stop-color:#64D889;stop-opacity:0"/>
		</linearGradient>
		
			<path style="fill:none;stroke:url(#SVGID_00000151515390320578745950000008198007488140221875_);stroke-width:2;stroke-opacity:0.25;" d="
			M2036.398,36.319l-20.828-12.042c-3.991-2.311-8.462-3.684-13.063-4.016l-7.809-0.563c-4.63-0.332-9.26,0.392-13.556,2.119
			l-6.807,2.732c-4.804,1.935-10.029,2.607-15.182,1.956l-5.936-0.752c-2.569-0.325-5.094-0.978-7.504-1.943l-24.166-9.679
			c-6.56-2.63-13.992-1.916-19.942,1.919l-9.666,6.229c-3.15,2.033-7.301,1.552-9.899-1.151l0,0
			c-3.033-3.148-8.055-3.213-11.176-0.148l-9.042,8.903c-6.589,6.494-16.735,7.735-24.703,3.023l-2.496-1.475
			c-7.693-4.555-17.286-4.482-24.921,0.187l-13.948,8.536l-20.595,10.167c-4.935,2.437-9.115,6.164-12.105,10.787l-6.183,9.56
			c-2.598,4.042-6.139,7.408-10.305,9.822l-17.156,9.957c-3.208,1.858-6.038,4.283-8.375,7.157l-20.494,25.244l-26.169,26.417
			c-1.277,1.285-2.671,2.44-4.18,3.446l-12.598,8.434c-3.832,2.573-8.984,1.962-12.12-1.438l0,0
			c-2.119-2.309-5.269-3.401-8.374-2.91l-7.736,1.225c-5.399,0.856-10.929-0.16-15.69-2.88l-0.827-0.478
			c-5.298-3.029-11.452-4.161-17.475-3.208l-2.656,0.419c-6.285,0.997-12.729-0.08-18.36-3.067l0,0
			c-5.631-2.987-12.076-4.063-18.36-3.067l-1.118,0.177c-2.845,0.45-5.733,0.495-8.592,0.135l-21.829-2.759
			c-11.698-1.476-23.193,3.919-29.522,13.855l-10.407,16.315c-3.237,5.083-9.144,7.814-15.109,6.997l-0.465-0.064
			c-4.891-0.669-9.797,1.181-13.019,4.919l0,0c-5.864,6.793-16.401,6.729-22.178-0.135l-1.655-1.968
			c-2.729-3.229-6.938-4.801-11.103-4.141l0,0c-3.658,0.579-7.373-0.554-10.087-3.076l-1.205-1.112
			c-3.454-3.224-8.215-4.674-12.889-3.933l-12.976,2.055c-7.707,1.221-14.645,5.343-19.391,11.523l-1.988,2.581
			c-0.726,0.933-1.321,1.948-1.8,3.025l0,0c-2.888,6.512-10.009,10.045-16.944,8.405l-95.049-22.474
			c-11.498-2.719-23.532,1.451-30.88,10.703l-29.458,37.084c-2.414,3.038-4.225,6.51-5.335,10.228l-2.964,9.91
			c-2.618,8.761-9.032,15.883-17.471,19.401l-43.41,18.102c-1.89,0.788-3.697,1.765-5.392,2.916l-35.501,24.109l-38.624,26.469
			c-4.412,3.023-7.949,7.154-10.26,11.977l-9.208,19.227c-1.495,3.122-3.513,5.968-5.964,8.414l-3.54,3.531
			c-4.547,4.536-10.412,7.52-16.758,8.526l-6.266,0.991c-2.91,0.462-5.668,1.617-8.038,3.369l0,0
			c-8.378,6.192-20.222,4.177-26.082-4.436l-2.785-4.092c-5.711-8.393-16.233-12.079-25.932-9.08l-34.589,10.687
			c-2.267,0.701-4.608,1.135-6.974,1.292l-41.647,2.772c-2.405,0.16-4.782,0.605-7.084,1.325l-36.857,11.543
			c-2.945,0.922-6.013,1.392-9.099,1.392l-21.31,0.009c-6.273,0.001-12.394-1.932-17.526-5.536l-28.973-20.344
			c-5.134-3.604-11.254-5.537-17.526-5.534l-10.707,0.003l-13.17,0.006c-4.719,0.001-9.373,1.099-13.595,3.205l-16.903,8.431
			c-3.412,1.703-7.115,2.749-10.915,3.086l-15.148,1.344c-9.861,0.874-19.15,6.753-28.286,10.563
			c-6.531,2.723-15.733,4.842-28.133,4.846c-15.349,0.006-32.397,8.494-46.31,17.964c-9.021,6.139-38.827,18.69-49.738,18.694l0,0
			c-1.314,0-5.347,0.231-6.598,0.627c-48.297,15.26-62.945-11.408-76.934-19c-4.581-2.486-9.878-0.38-14.218,2.507l-31.242,20.79
			c-8.732,5.81-19.838,6.723-29.401,2.417l-16.161-7.279l-34.895-14.202c-9.347-3.804-19.973-2.734-28.375,2.856l-56.287,37.454
			c-2.348,1.563-4.904,2.794-7.592,3.653l-70.775,22.658c-3,0.961-6.132,1.45-9.282,1.451l-34.191,0.012
			c-12.681,0.004-24.04-7.842-28.522-19.706l-5.428-14.365c-4.483-11.862-15.103-16.328-26.539-10.846
			c-17.415,8.347-42.391,19.577-56.197,19.582c-21.973,0.007-89.851-18.916-121.044-28.379"/>
		
			<linearGradient id="SVGID_00000177449975745354526630000014452644954048241852_" gradientUnits="userSpaceOnUse" x1="1197.5576" y1="530.9088" x2="-879.5662" y2="137.1241" gradientTransform="matrix(1 0 0 -1 804 596)">
			<stop  offset="0" style="stop-color:#64D889;stop-opacity:0"/>
			<stop  offset="0.2031" style="stop-color:#64D889"/>
			<stop  offset="0.3332" style="stop-color:#64D889;stop-opacity:0"/>
			<stop  offset="0.6672" style="stop-color:#64D889;stop-opacity:0"/>
			<stop  offset="0.7571" style="stop-color:#64D889"/>
			<stop  offset="0.9948" style="stop-color:#64D889;stop-opacity:0"/>
		</linearGradient>
		
			<path style="fill:none;stroke:url(#SVGID_00000177449975745354526630000014452644954048241852_);stroke-width:2;stroke-opacity:0.1;" d="
			M2032.044,5.839l-20.828-12.042c-3.991-2.311-8.462-3.684-13.063-4.016l-7.809-0.563c-4.63-0.332-9.26,0.392-13.556,2.119
			l-6.807,2.732c-4.804,1.935-10.029,2.607-15.182,1.956l-5.936-0.752c-2.569-0.325-5.094-0.978-7.504-1.943l-24.166-9.679
			c-6.56-2.63-13.992-1.916-19.942,1.919l-9.666,6.229c-3.15,2.033-7.301,1.552-9.899-1.151l0,0
			c-3.033-3.148-8.055-3.213-11.176-0.148l-9.042,8.903c-6.589,6.494-16.735,7.735-24.703,3.023l-2.496-1.475
			c-7.693-4.555-17.286-4.482-24.921,0.187L1791.4,9.674l-20.595,10.167c-4.935,2.437-9.115,6.164-12.105,10.787l-6.183,9.56
			c-2.598,4.042-6.139,7.408-10.305,9.822l-17.156,9.957c-3.208,1.858-6.038,4.283-8.375,7.157l-20.494,25.244l-26.169,26.417
			c-1.277,1.285-2.671,2.44-4.18,3.446l-12.598,8.434c-3.832,2.573-8.984,1.962-12.119-1.438l0,0
			c-2.119-2.309-5.269-3.401-8.375-2.91l-7.736,1.225c-5.399,0.856-10.929-0.16-15.69-2.88l-0.827-0.478
			c-5.298-3.029-11.452-4.161-17.475-3.208l-2.656,0.419c-6.285,0.997-12.729-0.08-18.36-3.067l0,0
			c-5.631-2.987-12.076-4.063-18.36-3.067l-1.118,0.177c-2.845,0.45-5.733,0.495-8.592,0.135l-21.829-2.759
			c-11.698-1.476-23.193,3.919-29.522,13.855l-10.407,16.315c-3.237,5.083-9.144,7.814-15.109,6.997l-0.465-0.064
			c-4.891-0.669-9.797,1.181-13.019,4.919l0,0c-5.864,6.793-16.401,6.729-22.178-0.135l-1.655-1.968
			c-2.729-3.229-6.938-4.801-11.103-4.141l0,0c-3.658,0.579-7.373-0.554-10.087-3.076l-1.205-1.112
			c-3.454-3.224-8.215-4.674-12.889-3.933l-12.976,2.055c-7.707,1.221-14.645,5.343-19.391,11.523l-1.988,2.581
			c-0.726,0.933-1.324,1.948-1.801,3.025l0,0c-2.888,6.512-10.008,10.045-16.942,8.405l-95.049-22.474
			c-11.498-2.719-23.532,1.451-30.88,10.703l-29.458,37.084c-2.414,3.038-4.225,6.51-5.335,10.228l-2.964,9.91
			c-2.618,8.761-9.032,15.883-17.471,19.401l-43.41,18.102c-1.89,0.788-3.697,1.765-5.392,2.916l-35.501,24.109l-38.624,26.469
			c-4.412,3.023-7.949,7.154-10.26,11.977l-9.208,19.227c-1.495,3.122-3.512,5.968-5.964,8.414l-3.54,3.531
			c-4.547,4.536-10.412,7.52-16.758,8.526l-6.266,0.991c-2.91,0.462-5.668,1.617-8.038,3.369l0,0
			c-8.378,6.192-20.222,4.177-26.082-4.436l-2.785-4.092c-5.711-8.393-16.233-12.079-25.932-9.08l-34.589,10.687
			c-2.267,0.701-4.608,1.135-6.974,1.292l-41.647,2.772c-2.405,0.16-4.782,0.605-7.084,1.325l-36.857,11.543
			c-2.945,0.922-6.013,1.392-9.099,1.392l-21.31,0.009c-6.273,0.001-12.394-1.932-17.526-5.536l-28.973-20.344
			c-5.134-3.604-11.254-5.537-17.526-5.534l-10.707,0.003l-13.17,0.006c-4.719,0.001-9.373,1.099-13.595,3.205l-16.903,8.431
			c-3.412,1.702-7.115,2.749-10.915,3.086l-15.148,1.344c-9.861,0.874-19.15,6.753-28.287,10.563
			c-6.531,2.723-15.733,4.842-28.133,4.846c-15.349,0.006-32.397,8.494-46.31,17.964c-9.02,6.139-38.827,18.69-49.738,18.694l0,0
			c-1.314,0-5.347,0.231-6.598,0.627c-48.297,15.26-62.945-11.408-76.934-19c-4.581-2.486-9.878-0.38-14.218,2.507l-31.242,20.79
			c-8.732,5.81-19.838,6.723-29.401,2.417l-16.161-7.279l-34.895-14.202c-9.347-3.804-19.973-2.734-28.375,2.856l-56.287,37.454
			c-2.348,1.563-4.904,2.794-7.592,3.653l-70.775,22.658c-3,0.961-6.132,1.45-9.282,1.451l-34.19,0.012
			c-12.681,0.004-24.04-7.842-28.523-19.706l-5.428-14.365c-4.483-11.862-15.103-16.328-26.539-10.846
			c-17.415,8.347-42.391,19.577-56.197,19.582c-21.973,0.007-89.851-18.916-121.044-28.379"/>
	</g>
</g>
<script  id="eppiocemhmnlbhjplcgkofciiegomcon" xmlns=""></script>
<script  xmlns=""></script>
<script  xmlns=""></script>
<script  xmlns=""></script>
<script  xmlns=""></script>
<g>
	<path class="st7" d="M1014.608,401.041c1.091-0.627,1.583-1.461,1.581-2.721c-0.021-9.907-0.008-19.815-0.022-29.722
		c-0.001-0.511,0.155-0.785,0.608-1.045c8.692-4.984,17.367-9.998,26.062-14.977c1.077-0.617,1.555-1.435,1.552-2.67
		c-0.019-10.458-0.019-20.916,0-31.374c0.002-1.212-0.474-2.034-1.519-2.634c-9.186-5.27-18.364-10.553-27.536-15.847
		c-1.001-0.578-1.922-0.588-2.928-0.007c-9.17,5.295-18.347,10.578-27.532,15.846c-1.063,0.61-1.561,1.435-1.558,2.674
		c0.02,9.928,0.008,19.856,0.02,29.784c0.001,0.454-0.106,0.727-0.528,0.969c-7.473,4.284-14.934,8.587-22.399,12.885
		c-0.181,0.104-0.373,0.19-0.655,0.333c0-0.388,0-0.65,0-0.912c0-8.97,0-17.939,0-26.909c0-10.682-0.006-21.364,0.008-32.046
		c0.001-1.183-0.386-2.071-1.448-2.681c-9.202-5.283-18.398-10.575-27.585-15.884c-1.047-0.605-1.983-0.602-3.034,0.006
		c-9.185,5.311-18.382,10.6-27.581,15.885c-0.98,0.563-1.441,1.362-1.441,2.494c0.007,31.985,0.007,63.971-0.001,95.956
		c0,1.157,0.472,1.949,1.48,2.529c17.389,9.997,34.767,20.014,52.157,30.009c1.652,0.949,3.37,1.782,5.058,2.669
		c0.041,0,0.082,0,0.122,0c0.576-0.246,1.185-0.435,1.724-0.745C977.68,422.288,996.138,411.655,1014.608,401.041z
		 M1010.943,397.821c-16.791,9.649-33.572,19.314-50.356,28.976c-0.24,0.138-0.485,0.266-0.811,0.445
		c-0.017-0.316-0.04-0.533-0.04-0.749c-0.002-8.562,0.002-17.124-0.01-25.686c-0.001-0.482,0.139-0.761,0.575-1.009
		c16.863-9.608,33.718-19.23,50.574-28.849c0.188-0.107,0.384-0.2,0.69-0.359c0,0.37,0,0.593,0,0.815
		c0,8.44-0.006,16.88,0.013,25.319C1011.58,397.265,1011.413,397.551,1010.943,397.821z M1039.752,322.173c0,0.314,0,0.53,0,0.745
		c0,8.479-0.003,16.958,0.009,25.437c0.001,0.457-0.114,0.729-0.534,0.97c-7.472,4.282-14.933,8.584-22.398,12.88
		c-0.172,0.099-0.352,0.182-0.652,0.336c0-0.338,0-0.559,0-0.78c0-8.459,0.005-16.917-0.013-25.376
		c-0.001-0.522,0.168-0.788,0.612-1.042c7.455-4.272,14.9-8.563,22.348-12.848C1039.294,322.396,1039.473,322.314,1039.752,322.173z
		 M990.99,317.714c7.447-4.289,14.897-8.573,22.337-12.873c0.384-0.222,0.662-0.236,1.048-0.013
		c7.459,4.308,14.925,8.601,22.389,12.899c0.191,0.11,0.375,0.233,0.631,0.392c-0.225,0.142-0.387,0.252-0.556,0.35
		c-7.48,4.311-14.963,8.618-22.438,12.938c-0.379,0.219-0.66,0.238-1.049,0.012c-7.493-4.33-14.996-8.645-22.496-12.965
		c-0.156-0.09-0.303-0.195-0.516-0.332C990.59,317.964,990.786,317.831,990.99,317.714z M987.94,322.904
		c0-0.215,0.018-0.43,0.032-0.744c0.291,0.154,0.503,0.258,0.707,0.376c7.465,4.295,14.928,8.595,22.398,12.882
		c0.365,0.21,0.498,0.449,0.498,0.869c-0.011,8.52-0.008,17.041-0.01,25.561c0,0.194-0.024,0.389-0.043,0.683
		c-0.269-0.141-0.463-0.233-0.649-0.34c-7.465-4.297-14.928-8.598-22.4-12.883c-0.414-0.237-0.544-0.5-0.544-0.964
		C987.942,339.863,987.938,331.384,987.94,322.904z M955.127,306.197c0,0.359,0,0.598,0,0.837c0,19.139-0.003,38.278,0.013,57.417
		c0,0.584-0.177,0.904-0.688,1.197c-7.404,4.237-14.794,8.498-22.189,12.752c-0.206,0.118-0.417,0.225-0.735,0.396
		c0-0.321,0-0.535,0-0.748c0-19.22,0-38.441-0.004-57.661c0-0.38,0.018-0.671,0.425-0.904c7.579-4.344,15.146-8.706,22.717-13.064
		C954.77,306.357,954.882,306.313,955.127,306.197z M906.281,301.779c7.465-4.297,14.933-8.59,22.393-12.896
		c0.375-0.216,0.654-0.254,1.052-0.024c7.475,4.319,14.96,8.622,22.442,12.929c0.169,0.098,0.33,0.211,0.566,0.363
		c-0.231,0.151-0.389,0.265-0.557,0.362c-7.481,4.308-14.965,8.613-22.442,12.929c-0.352,0.203-0.618,0.249-0.998,0.029
		c-7.511-4.341-15.031-8.666-22.548-12.995c-0.139-0.08-0.269-0.174-0.49-0.319C905.928,302.009,906.099,301.884,906.281,301.779z
		 M955.12,426.395c0,0.239,0,0.478,0,0.877c-1.588-0.912-3.035-1.741-4.48-2.573c-15.584-8.972-31.167-17.946-46.758-26.906
		c-0.449-0.258-0.601-0.543-0.6-1.056c0.013-29.926,0.011-59.852,0.011-89.777c0-0.216,0-0.432,0-0.773
		c0.304,0.156,0.499,0.245,0.683,0.351c7.43,4.276,14.857,8.558,22.297,12.818c0.493,0.282,0.657,0.591,0.656,1.148
		c-0.014,20.528-0.001,41.056-0.035,61.584c-0.003,1.495,0.536,2.404,1.828,3.128c8.579,4.809,17.125,9.677,25.695,14.501
		c0.543,0.306,0.717,0.635,0.715,1.237C955.114,409.434,955.12,417.914,955.12,426.395z M956.822,395.804
		c-7.4-4.208-14.811-8.396-22.22-12.589c-0.194-0.11-0.383-0.227-0.655-0.388c0.235-0.159,0.416-0.299,0.613-0.413
		c12.002-6.911,24.005-13.819,36.008-20.728c4.872-2.804,9.744-5.606,14.609-8.423c0.341-0.198,0.589-0.209,0.938-0.008
		c7.494,4.329,14.996,8.645,22.496,12.964c0.157,0.091,0.308,0.192,0.582,0.362c-0.74,0.423-1.39,0.796-2.04,1.167
		c-16.376,9.348-32.754,18.695-49.123,28.056C957.581,396.064,957.268,396.058,956.822,395.804z"/>
	<path class="st7" d="M330.182,408.651h55.761c1.771,0,3.511-0.462,5.045-1.34c1.534-0.878,2.807-2.14,3.693-3.661
		c0.885-1.521,1.351-3.245,1.35-5c-0.001-1.755-0.468-3.48-1.354-4.999l-37.448-64.285c-0.885-1.52-2.158-2.782-3.692-3.66
		c-1.534-0.878-3.273-1.34-5.044-1.34c-1.771,0-3.51,0.462-5.044,1.34c-1.533,0.878-2.807,2.14-3.692,3.66l-9.575,16.448
		l-18.721-32.164c-0.886-1.52-2.16-2.782-3.694-3.66c-1.534-0.877-3.274-1.339-5.045-1.339s-3.511,0.462-5.045,1.339
		c-1.534,0.878-2.808,2.14-3.694,3.66l-46.599,80.001c-0.887,1.52-1.354,3.244-1.354,4.999c-0.001,1.755,0.465,3.48,1.35,5
		c0.885,1.52,2.159,2.783,3.692,3.661c1.534,0.878,3.274,1.34,5.045,1.34h35.002c13.868,0,24.096-6.038,31.133-17.816l17.086-29.326
		l9.151-15.694l27.465,47.142h-36.616L330.182,408.651z M290.549,392.94l-24.427-0.005l36.616-62.853l18.27,31.426l-12.233,21.005
		C304.103,390.156,298.793,392.94,290.549,392.94z"/>
	<g id="_x35_NN0yK.tif">
		<g>
			<path class="st8" d="M733.868,283.946c-1.163,1.997-2.333,3.99-3.488,5.991c-3.914,6.777-7.823,13.558-11.735,20.336
				c-4.18,7.243-8.362,14.485-12.544,21.727c-7.571,13.112-15.145,26.222-22.715,39.335c-7.363,12.753-14.723,25.509-22.084,38.263
				c-4.546,7.876-9.094,15.752-13.643,23.626c-0.082,0.142-0.12,0.321-0.368,0.426c-0.165-0.274-0.34-0.555-0.505-0.842
				c-5.852-10.135-11.704-20.27-17.554-30.406c-7.044-12.206-14.083-24.414-21.13-36.618c-6.961-12.057-13.93-24.108-20.891-36.165
				c-7.546-13.07-15.088-26.142-22.631-39.214c-1.17-2.027-2.338-4.056-3.506-6.084c-0.12-0.208-0.3-0.396-0.239-0.669
				c11.516,0,23.032,0,34.548,0c0.058,0.133,0.104,0.272,0.176,0.397c0.926,1.603,1.858,3.203,2.783,4.806
				c1.91,3.314,3.813,6.631,5.725,9.944c1.753,3.038,3.516,6.071,5.27,9.108c1.717,2.975,3.427,5.954,5.144,8.929
				c1.559,2.7,3.128,5.395,4.686,8.095c1.57,2.722,3.129,5.451,4.701,8.172c1.693,2.932,3.401,5.856,5.093,8.788
				c1.766,3.059,3.516,6.127,5.282,9.186c1.888,3.27,3.79,6.531,5.678,9.801c2.107,3.65,4.203,7.306,6.308,10.957
				c0.348,0.604,0.717,1.196,1.07,1.784c0.249-0.072,0.274-0.262,0.354-0.402c1.34-2.32,2.674-4.644,4.015-6.965
				c1.56-2.7,3.128-5.395,4.686-8.096c1.571-2.722,3.13-5.45,4.702-8.171c1.499-2.594,3.012-5.18,4.51-7.775
				c1.572-2.721,3.13-5.45,4.7-8.172c1.558-2.701,3.127-5.395,4.685-8.096c1.571-2.722,3.13-5.45,4.702-8.171
				c1.499-2.594,3.011-5.181,4.51-7.775c1.572-2.721,3.131-5.45,4.701-8.172c1.558-2.701,3.125-5.397,4.685-8.096
				c1.402-2.425,2.814-4.845,4.196-7.281c0.528-0.931,1.137-1.816,1.577-2.796c11.297,0,22.593,0,33.89,0
				c0.171,0,0.342,0.008,0.512-0.002C734.01,283.635,733.807,283.854,733.868,283.946z"/>
			<path class="st7" d="M699.319,283.653c-0.44,0.98-1.049,1.865-1.577,2.796c-1.382,2.437-2.794,4.856-4.196,7.281
				c-1.561,2.699-3.127,5.395-4.685,8.096c-1.57,2.722-3.129,5.45-4.701,8.172c-1.498,2.595-3.011,5.181-4.51,7.775
				c-1.572,2.721-3.131,5.449-4.702,8.171c-1.558,2.701-3.127,5.395-4.685,8.096c-1.57,2.722-3.129,5.451-4.7,8.172
				c-1.498,2.594-3.012,5.18-4.51,7.775c-1.572,2.721-3.131,5.45-4.702,8.171c-1.558,2.701-3.126,5.396-4.686,8.096
				c-1.34,2.32-2.674,4.644-4.015,6.965c-0.081,0.14-0.105,0.33-0.354,0.402c-0.353-0.588-0.722-1.18-1.07-1.784
				c-2.105-3.651-4.201-7.307-6.308-10.957c-1.888-3.27-3.79-6.531-5.678-9.801c-1.766-3.059-3.516-6.127-5.282-9.186
				c-1.693-2.932-3.4-5.856-5.093-8.788c-1.572-2.721-3.13-5.45-4.701-8.172c-1.558-2.701-3.127-5.395-4.686-8.095
				c-1.717-2.975-3.427-5.954-5.144-8.929c-1.754-3.038-3.517-6.07-5.27-9.108c-1.911-3.313-3.815-6.63-5.725-9.944
				c-0.924-1.604-1.857-3.203-2.783-4.806c-0.072-0.125-0.118-0.264-0.176-0.397c10.687,0,21.373,0,32.06,0
				c-0.098,0.254,0.109,0.409,0.21,0.585c6.451,11.185,12.908,22.367,19.368,33.546c0.09,0.155,0.126,0.374,0.352,0.417
				c0.181-0.122,0.242-0.313,0.337-0.478c6.446-11.16,12.89-22.32,19.33-33.484c0.103-0.178,0.301-0.335,0.222-0.587
				C677.946,283.653,688.633,283.653,699.319,283.653z"/>
		</g>
	</g>
	<g id="OdfRUN.tif">
		<g>
			<path class="st7" d="M1601.438,313.659c0.272,0.128,0.571,0.081,0.853,0.097c1.793,0.1,3.574,0.304,5.344,0.605
				c3.216,0.547,6.326,1.455,9.309,2.777c3.735,1.655,7.081,3.912,10.174,6.566c2.77,2.376,5.282,5.016,7.857,7.592
				c1.879,1.879,3.792,3.719,5.941,5.296c2.559,1.877,5.373,3.15,8.516,3.677c1.572,0.264,3.15,0.443,4.746,0.389
				c3.725-0.126,7.18-1.169,10.373-3.089c2.703-1.625,5.03-3.692,7.115-6.045c0.745-0.841,1.463-1.703,2.138-2.601
				c0.034-0.045,0.058-0.104,0.166-0.112c-0.109,0.422-0.208,0.833-0.321,1.241c-0.961,3.468-2.19,6.834-3.859,10.03
				c-1.513,2.896-3.336,5.573-5.568,7.969c-3.397,3.646-7.452,6.295-12.11,8.041c-2.354,0.882-4.779,1.5-7.255,1.913
				c-1.423,0.237-2.857,0.389-4.297,0.5c-1.823,0.14-3.647,0.193-5.473,0.14c-1.843-0.053-3.68-0.192-5.51-0.434
				c-2.871-0.379-5.676-1.024-8.406-1.988c-3.778-1.334-7.232-3.264-10.42-5.681c-1.878-1.424-3.634-2.987-5.335-4.616
				c-1.983-1.898-3.86-3.903-5.824-5.82c-1.917-1.87-3.889-3.674-6.14-5.148c-2.362-1.548-4.938-2.525-7.725-2.967
				c-1.401-0.222-2.806-0.361-4.224-0.334c-3.069,0.058-5.986,0.758-8.748,2.097c-2.962,1.435-5.505,3.436-7.791,5.783
				c-1.187,1.219-2.281,2.517-3.314,3.868c-0.028,0.037-0.058,0.073-0.126,0.157c0.008-0.337,0.109-0.597,0.179-0.858
				c0.997-3.703,2.291-7.293,4.091-10.688c1.437-2.712,3.151-5.229,5.223-7.502c2.82-3.094,6.133-5.513,9.922-7.28
				c2.799-1.305,5.731-2.194,8.765-2.757c1.967-0.365,3.949-0.599,5.947-0.72c0.483-0.029,0.973,0.024,1.45-0.097
				C1598.545,313.659,1599.991,313.659,1601.438,313.659z"/>
			<path class="st7" d="M1523.97,388.482c0.233-0.833,0.455-1.67,0.7-2.5c0.831-2.812,1.871-5.543,3.188-8.165
				c1.381-2.75,3.036-5.319,5.054-7.651c2.427-2.805,5.253-5.118,8.496-6.917c2.408-1.336,4.955-2.334,7.612-3.056
				c2.215-0.602,4.467-0.996,6.749-1.245c2.548-0.278,5.104-0.347,7.661-0.263c3.468,0.113,6.895,0.556,10.258,1.443
				c3.755,0.991,7.277,2.512,10.56,4.587c2.459,1.555,4.718,3.364,6.862,5.325c2.012,1.84,3.904,3.802,5.827,5.732
				c1.682,1.688,3.374,3.366,5.23,4.867c2.103,1.7,4.368,3.118,6.966,3.941c1.707,0.541,3.458,0.856,5.244,0.996
				c4.002,0.314,7.785-0.451,11.352-2.286c1.92-0.988,3.666-2.229,5.291-3.648c1.95-1.702,3.66-3.625,5.234-5.673
				c0.046-0.06,0.074-0.14,0.201-0.16c-0.15,0.568-0.286,1.123-0.443,1.672c-0.931,3.262-2.101,6.432-3.664,9.449
				c-1.589,3.068-3.521,5.892-5.913,8.399c-3.477,3.643-7.614,6.25-12.344,7.94c-2.552,0.912-5.177,1.519-7.86,1.89
				c-1.45,0.2-2.905,0.334-4.366,0.411c-1.758,0.093-3.516,0.088-5.273,0.028c-1.764-0.06-3.519-0.235-5.268-0.495
				c-2.349-0.35-4.654-0.878-6.907-1.621c-4.08-1.346-7.801-3.371-11.216-5.968c-2.11-1.605-4.079-3.369-5.957-5.237
				c-1.849-1.839-3.676-3.7-5.537-5.527c-1.68-1.649-3.44-3.208-5.391-4.542c-2.549-1.744-5.349-2.822-8.404-3.273
				c-1.522-0.225-3.047-0.34-4.58-0.264c-2.608,0.128-5.107,0.73-7.493,1.798c-2.474,1.107-4.676,2.623-6.688,4.426
				c-1.831,1.641-3.466,3.462-4.953,5.418c-0.052,0.069-0.109,0.134-0.163,0.201C1524.013,388.505,1523.991,388.493,1523.97,388.482
				z"/>
		</g>
	</g>
	<g id="oKMiz4_00000162319208635345193970000006212489032393432217_">
		<g>
			<path class="st8" d="M1359.179,285.844c0.003-1.833-0.359-2.198-2.193-2.193c-30.869,0.073-61.739,0.052-92.608,0.052
				c-17.557,0-35.115,0.032-52.673-0.046c-1.899-0.008-2.543,0.258-2.526,2.395c0.117,15.24,0.062,30.482,0.062,45.724
				c0,33.941,0,67.882,0,101.823c17.166,0,34.278,0,51.39,0c32.118,0,64.237-0.02,96.355,0.052c1.833,0.004,2.195-0.36,2.193-2.193
				C1359.115,382.92,1359.115,334.382,1359.179,285.844z M1260.641,389.246c-10.136,0-20.271,0-31.17,0
				c1.682-1.743,2.863-3.001,4.08-4.223c8.106-8.139,16.18-16.312,24.367-24.369c1.538-1.514,1.713-2.325,0.067-3.945
				c-8.82-8.683-17.507-17.501-26.226-26.287c-0.596-0.601-1.404-1.067-1.67-2.286c3.993,0,7.876,0,11.759,0
				c4.721,0,9.453,0.192,14.159-0.068c3.328-0.184,6.12,0.357,8.195,3.132c0.045-0.999,0.119-1.998,0.153-2.997
				c-0.034,0.999-0.108,1.998-0.153,2.997c8.393,8.464,16.741,16.975,25.22,25.352c1.642,1.623,1.757,2.478,0.041,4.167
				c-9.198,9.048-18.252,18.241-27.367,27.374C1261.661,388.527,1261.128,388.863,1260.641,389.246z M1337.529,360.289
				c-9.241,9.153-18.383,18.405-27.557,27.627c-0.7,0.704-1.402,1.271-2.521,1.266c-9.715-0.04-19.43-0.032-29.146-0.049
				c-0.145,0-0.289-0.14-1.137-0.576c3.01-2.815,5.906-5.399,8.661-8.126c6.588-6.52,13.042-13.177,19.702-19.621
				c1.835-1.776,1.563-2.753-0.092-4.386c-8.692-8.574-17.277-17.256-25.896-25.904c-0.618-0.62-1.207-1.269-2.259-2.379
				c10.512,0,20.395,0.012,30.278-0.017c1.132-0.003,1.796,0.65,2.487,1.343c9.114,9.152,18.206,18.327,27.36,27.439
				C1338.647,358.137,1338.955,358.877,1337.529,360.289z"/>
			<path class="st7" d="M1260.641,389.246c-10.136,0-20.271,0-31.17,0c1.682-1.743,2.863-3.001,4.08-4.223
				c8.106-8.139,16.18-16.312,24.367-24.369c1.538-1.514,1.713-2.325,0.068-3.945c-8.82-8.683-17.507-17.501-26.226-26.287
				c-0.596-0.601-1.404-1.067-1.67-2.286c3.993,0,7.876,0,11.759,0c4.721,0,9.453,0.192,14.159-0.068
				c3.328-0.184,6.12,0.357,8.195,3.132c8.394,8.464,16.741,16.975,25.22,25.352c1.642,1.623,1.757,2.478,0.041,4.167
				c-9.198,9.048-18.252,18.241-27.367,27.374C1261.661,388.527,1261.128,388.863,1260.641,389.246z"/>
			<path class="st7" d="M1277.286,328.141c10.512,0,20.395,0.012,30.278-0.017c1.132-0.003,1.796,0.65,2.487,1.343
				c9.114,9.152,18.206,18.327,27.36,27.439c1.236,1.23,1.544,1.971,0.119,3.382c-9.241,9.152-18.383,18.405-27.557,27.627
				c-0.7,0.704-1.402,1.271-2.521,1.266c-9.715-0.04-19.43-0.032-29.146-0.049c-0.145,0-0.289-0.14-1.137-0.576
				c3.01-2.815,5.906-5.399,8.661-8.126c6.588-6.52,13.042-13.177,19.702-19.621c1.835-1.776,1.563-2.753-0.092-4.386
				c-8.692-8.574-17.277-17.256-25.895-25.904C1278.927,329.899,1278.339,329.251,1277.286,328.141z"/>
		</g>
	</g>
</g>
<text transform="matrix(1 0 0 1 754.4158 170.8809)" class="st7 st9 st10">Tecnologías</text>
</svg>
